<?xml version="1.0" encoding="UTF-8"?>
<svg id="Layer_1" data-name="Layer 1" xmlns="http://www.w3.org/2000/svg" viewBox="0 0 95.23 58.65">
  <defs>
    <style>
      .cls-1 {
        fill: #000;
      }

      .cls-1, .cls-2 {
        stroke-width: 0px;
      }

      .cls-2 {
        fill: none;
      }
    </style>
  </defs>
  <line class="cls-2" x1="63.94" y1="12.98" x2="67.59" y2="3.69"/>
  <g>
    <path class="cls-1" d="M18.19,9.84H0C.77,6.53,1.52,3.3,2.27.09c.68-.14,48.72-.1,49.16.05-.75,3.21-1.49,6.43-2.25,9.7h-18.13c-3.65,16.07-7.29,32.09-10.92,48.08-.42.13-12.24.15-12.86.01,3.64-16.01,7.28-32.01,10.93-48.09Z"/>
    <path class="cls-1" d="M33.72,38.06c-.64,0-1.21,0-1.77,0-.25,0-.5-.03-.73-.1-.34-.1-.57-.44-.55-.77.02-.35.2-.61.53-.73.21-.07.45-.11.68-.11,3.27,0,6.53-.03,9.8,0,1.92.02,3.62.63,4.96,2.07,1.69,1.81,1.93,4.4.57,6.31-.41.58-.94,1.07-1.52,1.47-.15.11-.3.22-.5.36.38.18.72.33,1.05.49,1.22.6,2.23,1.43,2.88,2.66,1.1,2.09.58,4.91-1.24,6.52-1.34,1.19-2.89,1.81-4.7,1.79-3.71-.03-7.42,0-11.13,0-.21,0-.43,0-.64-.02-.43-.06-.73-.39-.74-.78-.02-.39.26-.75.69-.82.28-.05.57-.03.85-.04.49,0,.99,0,1.52,0v-18.31ZM35.51,47.69v8.65c.14,0,.24.02.35.02,2.52,0,5.04,0,7.56,0,.62,0,1.24-.12,1.81-.38,1.55-.7,2.57-1.85,2.75-3.57.14-1.36-.5-2.44-1.5-3.31-1.19-1.03-2.65-1.36-4.15-1.41-2.18-.07-4.37-.03-6.55-.04-.07,0-.14.02-.27.03ZM35.49,45.93h.63c1.53,0,3.05,0,4.58,0,.53,0,1.06-.03,1.59-.11,1.03-.16,2.01-.47,2.8-1.19,1.38-1.27,1.9-3.33.33-5-.91-.97-2.02-1.51-3.33-1.54-2.09-.04-4.18-.02-6.28-.02-.1,0-.2.04-.32.06v7.81Z"/>
    <path class="cls-1" d="M55.57,38.06c-.4,0-.72.01-1.03,0-.25-.01-.5-.03-.74-.09-.37-.1-.56-.38-.57-.74,0-.39.2-.68.58-.79.2-.05.42-.08.63-.08,1.81,0,3.62,0,5.43,0,.23,0,.46.03.68.09.35.1.57.41.58.75,0,.35-.24.68-.61.78-.22.06-.45.08-.68.08-.67.01-1.35,0-2.02,0-.17,0-.35,0-.56,0-.01.23-.03.4-.03.57,0,4.05,0,8.1,0,12.14,0,1.96.73,3.57,2.22,4.87,2.18,1.9,6.04,1.85,8.14-.9.88-1.16,1.35-2.42,1.35-3.89-.02-4.07,0-8.13,0-12.2,0-.17-.02-.35-.03-.55-.19-.02-.34-.04-.5-.04-.67,0-1.35,0-2.02,0-.23,0-.46-.02-.68-.08-.39-.1-.62-.4-.63-.76,0-.36.21-.66.6-.79.15-.05.31-.08.47-.08,1.92,0,3.83,0,5.75,0,.17,0,.35.04.52.09.35.12.57.42.57.75,0,.36-.23.68-.61.77-.27.06-.56.07-.84.09-.26.01-.53,0-.86,0,0,.25-.02.45-.02.66,0,4.1.02,8.2-.01,12.3-.02,2.86-1.29,5.08-3.72,6.6-1.47.92-3.09,1.14-4.81.97-3.68-.38-6.17-3.69-6.51-6.87-.04-.39-.03-.78-.03-1.17,0-3.92,0-7.85,0-11.77v-.71Z"/>
    <path class="cls-1" d="M79.11,27.37V8.61c-.14-.02-.27-.05-.41-.06-.44,0-.89,0-1.33,0-.21,0-.43-.03-.63-.09-.35-.1-.57-.42-.56-.76.01-.35.24-.63.6-.73.1-.03.21-.04.32-.04,1.12,0,2.24,0,3.36,0,.07,0,.14.02.29.05.01,2.9,0,5.8,0,8.82.25-.24.42-.4.59-.57,1.06-1.02,2.27-1.77,3.76-1.96,1.19-.15,2.37-.12,3.52.29,1.62.58,3.42,2.41,3.4,5.07-.02,2.68,0,5.36,0,8.05v.71c.48,0,.9,0,1.32,0,.23,0,.47,0,.69.04.37.07.58.36.59.72,0,.38-.22.69-.6.77-.12.03-.25.03-.37.03-1.63,0-3.27,0-4.9,0-.11,0-.21,0-.32-.02-.42-.07-.67-.36-.67-.77,0-.41.25-.71.68-.75.37-.04.74-.02,1.12-.02.25,0,.49,0,.8,0,.02-.18.05-.33.05-.48,0-2.77,0-5.54,0-8.31,0-2.41-1.75-3.61-3.46-3.73-.61-.04-1.24-.05-1.85.03-.83.11-1.55.5-2.17,1.06-.74.69-1.47,1.39-2.14,2.03v9.4c.47,0,.91,0,1.35,0,.21,0,.43,0,.64.04.36.07.59.36.6.72.01.37-.23.69-.6.77-.17.04-.35.04-.53.04-1.53,0-3.05,0-4.58,0-.12,0-.25,0-.37-.01-.46-.05-.79-.38-.78-.78,0-.41.33-.73.81-.76.37-.02.75-.01,1.12-.01.21,0,.42,0,.69,0Z"/>
    <path class="cls-1" d="M50.61,21.74c-2.57.05-5.03.02-7.49.02-2.46,0-4.93,0-7.45,0,.05.28.07.48.12.69.62,2.86,2.88,5,5.77,5.37,2.78.36,5.35-.24,7.68-1.84.23-.16.46-.34.78-.26.57.15.81.83.4,1.26-.36.38-.8.71-1.25.97-1.16.67-2.43,1.08-3.74,1.34-1.74.34-3.48.37-5.21-.12-3.27-.93-5.73-3.76-6.13-7.12-.57-4.82,2.92-7.91,6.02-8.61,2.34-.53,4.63-.37,6.72.94,2.2,1.38,3.41,3.4,3.7,5.98.05.42.07.84.11,1.38ZM48.92,20.11c-.29-1.8-1.39-3.39-3.01-4.37-1.31-.79-2.74-.99-4.24-.91-2.81.15-5.22,2.13-5.89,4.87-.03.13-.04.26-.07.41h13.22Z"/>
    <path class="cls-1" d="M86.64,56.37c.22,0,.39,0,.56,0,1.08,0,2.17,0,3.25,0,.21,0,.43.02.63.08.36.11.56.4.55.76,0,.35-.21.65-.57.75-.18.05-.38.06-.58.06-3.16,0-6.32,0-9.48,0-.16,0-.32,0-.48-.03-.4-.08-.66-.38-.67-.78-.01-.42.2-.71.62-.81.19-.04.39-.04.58-.04,1.07,0,2.13,0,3.2,0,.18,0,.35,0,.52,0,.13-.44.18-6.36.08-8.15-2.22-3.35-4.46-6.74-6.72-10.16-.25,0-.5.01-.74,0-.23-.01-.47-.03-.68-.1-.33-.1-.54-.34-.57-.7-.03-.34.17-.66.51-.8.16-.06.34-.11.52-.11,1.47,0,2.95,0,4.42,0,.16,0,.32.04.47.09.36.12.53.39.52.78,0,.38-.19.66-.56.74-.36.07-.74.07-1.11.09-.23.01-.46,0-.8,0,1.89,2.86,3.74,5.64,5.64,8.5,1.85-2.86,3.66-5.63,5.52-8.5-.38,0-.67.01-.96,0-.3-.01-.6-.02-.9-.08-.41-.08-.6-.35-.61-.75,0-.41.18-.67.58-.78.2-.06.42-.08.63-.08,1.33,0,2.66,0,3.99,0,.21,0,.43.03.63.09.38.11.61.43.6.78,0,.35-.25.66-.64.76-.2.05-.42.07-.63.08-.23.01-.46,0-.71,0-.14.2-.27.39-.39.58-1.99,3.06-3.99,6.13-5.98,9.19-.16.24-.28.48-.28.78,0,2.45,0,4.9,0,7.35,0,.11.02.21.03.4Z"/>
    <path class="cls-1" d="M70.03,15.02c.05-.27.07-.5.13-.71.12-.42.35-.59.77-.58.4.01.65.21.74.63.04.17.04.35.04.53,0,1.01,0,2.02,0,3.04,0,.23-.03.46-.09.68-.12.37-.34.51-.71.51-.36,0-.6-.16-.72-.51-.04-.12-.08-.24-.09-.36-.05-.78-.48-1.35-1.02-1.87-.92-.88-2.04-1.35-3.29-1.49-1.09-.13-2.2-.13-3.28.12-1.87.43-3.16,1.59-3.94,3.29-1.14,2.49-1.07,4.94.59,7.2.99,1.35,2.38,2.11,4.04,2.33,2.64.35,5.04-.26,7.17-1.86.31-.23.58-.52.89-.77.4-.32.76-.34,1.06-.08.31.26.36.69.08,1.11-.17.25-.36.49-.59.68-1.79,1.47-3.83,2.33-6.14,2.57-1.63.16-3.23.07-4.73-.61-2.66-1.21-4.21-3.28-4.6-6.19-.18-1.32-.1-2.63.33-3.89,1.04-3.05,3.16-4.91,6.35-5.46,1.73-.3,3.44-.17,5.06.55.58.26,1.11.63,1.66.95.1.06.2.13.33.21Z"/>
  </g>
</svg>